General
Format                                   : AVI
Format/Info                              : Audio Video Interleave
File size                                : 1.61 GiB
Duration                                 : 1h 47mn
Overall bit rate                         : 2 141 Kbps

Video
ID                                       : 0
Format                                   : MPEG-4 Visual
Format profile                           : Simple@L1
Format settings, BVOP                    : No
Format settings, QPel                    : No
Format settings, GMC                     : No warppoints
Format settings, Matrix                  : Default (H.263)
Codec ID                                 : DX50
Codec ID/Hint                            : DivX 5
Duration                                 : 1h 47mn
Bit rate                                 : 1 999 Kbps
Width                                    : 720 pixels
Height                                   : 406 pixels
Display aspect ratio                     : 16:9
Frame rate                               : 25.000 fps
Color space                              : YUV
Chroma subsampling                       : 4:2:0
Bit depth                                : 8 bits
Scan type                                : Progressive
Compression mode                         : Lossy
Bits/(Pixel*Frame)                       : 0.274
Stream size                              : 1.50 GiB (93%)
Writing library                          : Lavc53.8.0

Audio
ID                                       : 1
Format                                   : MPEG Audio
Format version                           : Version 1
Format profile                           : Layer 3
Mode                                     : Joint stereo
Codec ID                                 : 55
Codec ID/Hint                            : MP3
Duration                                 : 1h 47mn
Bit rate mode                            : Constant
Bit rate                                 : 128 Kbps
Channel(s)                               : 2 channels
Sampling rate                            : 48.0 KHz
Compression mode                         : Lossy
Stream size                              : 98.5 MiB (6%)
Alignment                                : Aligned on interleaves
Interleave, duration                     : 24 ms (0.60 video frame)
Interleave, preload duration             : 504 ms

 
http://bayimg.com/KaDcfAaEo 
http://bayimg.com/kadCIaAEO 
http://bayimg.com/kadcnaaeo 
http://bayimg.com/LadCAaaeO

Depicting the events after the Gamma Bomb. 'The Incredible Hulk' tells the story of Dr Bruce Banner, who seeks a cure to his unique condition, which causes him to turn into a giant green monster under emotional stress. Whilst on the run from military which seeks his capture, Banner comes close to a cure. But all is lost when a new creature emerges.

PLEASE SEED AND COMMENT!!!!!!!!!!